<svg viewBox="0 0 120 100" xmlns="http://www.w3.org/2000/svg">
  <ellipse cx="62" cy="94" rx="46" ry="5" fill="#000" opacity="0.14"/>
  <path d="M10,34 h26 q7,0 10,6 l3,5 h48 q10,0 10,10 v3 H10 Z" fill="#707d38"/>
  <rect x="8" y="42" width="104" height="50" rx="9" fill="#7c8a3f"/>
  <rect x="14" y="48" width="92" height="38" rx="6" fill="none" stroke="#c9d18f" stroke-width="1.6" stroke-dasharray="3 3"/>
  <g transform="translate(60,67)">
    <ellipse cx="0" cy="-9" rx="5.5" ry="8" fill="#f4efd8"/>
    <ellipse cx="8.5" cy="-2.5" rx="5.5" ry="8" fill="#f4efd8" transform="rotate(72 8.5 -2.5)"/>
    <ellipse cx="5.3" cy="7.5" rx="5.5" ry="8" fill="#f4efd8" transform="rotate(144 5.3 7.5)"/>
    <ellipse cx="-5.3" cy="7.5" rx="5.5" ry="8" fill="#f4efd8" transform="rotate(216 -5.3 7.5)"/>
    <ellipse cx="-8.5" cy="-2.5" rx="5.5" ry="8" fill="#f4efd8" transform="rotate(288 -8.5 -2.5)"/>
    <circle r="4.2" fill="#e0b23a"/>
  </g>
</svg>
